name ./resultDataOpenSim/trcMotMarkerGrf/sub10/grf-15-08.mot
datacolumns 19
datarows 10
range 1.01200000 1.04800000
endheader

                time	     ground_force_vx	     ground_force_vy	     ground_force_vz	     ground_force_px	     ground_force_py	     ground_force_pz	   l_ground_force_vx	   l_ground_force_vy	   l_ground_force_vz	   l_ground_force_px	   l_ground_force_py	   l_ground_force_pz	     ground_torque_x	     ground_torque_y	     ground_torque_z	   l_ground_torque_x	   l_ground_torque_y	   l_ground_torque_z	
          1.01200000	          0.00000000	          0.00000000	          0.00000000	          0.00000000	          0.00000000	          0.00000000	         64.25290807	        983.83575522	          2.41112504	         -0.01627117	         -0.10000000	         -0.03421902	          0.00000000	          0.00000000	          0.00000000	          0.00000000	         -5.62903718	          0.00000000	
          1.01600000	          0.00000000	          0.00000000	          0.00000000	          0.00000000	          0.00000000	          0.00000000	         69.78496489	        980.28256978	          1.09751349	         -0.01613893	         -0.10000000	         -0.03402377	          0.00000000	          0.00000000	          0.00000000	          0.00000000	         -5.54299278	          0.00000000	
          1.02000000	          0.00000000	          0.00000000	          0.00000000	          0.00000000	          0.00000000	          0.00000000	         76.00935432	        975.43099571	         -0.18592784	         -0.01602080	         -0.10000000	         -0.03384092	          0.00000000	          0.00000000	          0.00000000	          0.00000000	         -5.41448964	          0.00000000	
          1.02400000	          0.00000000	          0.00000000	          0.00000000	          0.00000000	          0.00000000	          0.00000000	         82.83895250	        968.89307524	         -1.47315577	         -0.01589592	         -0.10000000	         -0.03364840	          0.00000000	          0.00000000	          0.00000000	          0.00000000	         -5.24358211	          0.00000000	
          1.02800000	          0.00000000	          0.00000000	          0.00000000	          0.00000000	          0.00000000	          0.00000000	         90.08106576	        960.26802927	         -2.79750777	         -0.01574526	         -0.10000000	         -0.03342621	          0.00000000	          0.00000000	          0.00000000	          0.00000000	         -5.03228685	          0.00000000	
          1.03200000	          0.00000000	          0.00000000	          0.00000000	          0.00000000	          0.00000000	          0.00000000	         97.50363581	        949.21274788	         -4.20775409	         -0.01553135	         -0.09999932	         -0.03315280	          0.00000000	          0.00000000	          0.00000000	          0.00000000	         -4.78463647	          0.00000000	
          1.03600000	          0.00000000	          0.00000000	          0.00000000	          0.00000000	          0.00000000	          0.00000000	        104.89813331	        935.47322967	         -5.77773958	         -0.01521022	         -0.09999900	         -0.03281079	          0.00000000	          0.00000000	          0.00000000	          0.00000000	         -4.50643838	          0.00000000	
          1.04000000	          0.00000000	          0.00000000	          0.00000000	          0.00000000	          0.00000000	          0.00000000	        112.11586747	        918.87708359	         -7.58956535	         -0.01476544	         -0.09999840	         -0.03239356	          0.00000000	          0.00000000	          0.00000000	          0.00000000	         -4.20485652	          0.00000000	
          1.04400000	          0.00000000	          0.00000000	          0.00000000	          0.00000000	          0.00000000	          0.00000000	        119.05938468	        899.34785220	         -9.69531702	         -0.01422196	         -0.09999800	         -0.03191072	          0.00000000	          0.00000000	          0.00000000	          0.00000000	         -3.88798720	          0.00000000	
          1.04800000	          0.00000000	          0.00000000	          0.00000000	          0.00000000	          0.00000000	          0.00000000	        125.64606802	        876.94334148	        -12.09010702	         -0.01362864	         -0.09999748	         -0.03138570	          0.00000000	          0.00000000	          0.00000000	          0.00000000	         -3.56449506	          0.00000000	
